# xmcd
#
# Track frame offsets:
#	150
#	11101
#	29401
#	45127
#	67319
#	88776
#	98759
#	110224
#	122336
#	140900
#	154509
#	170502
#	187320
#	203189
#	220863
#	238290
#	250992
#	262728
#	274201
#	292974
#	303821
#
# Disc length: 4229 seconds
#
# Revision: 0
# Processed by: cddbd v1.5.2PL0 Copyright (c) Steve Scherf et al.
# Submitted via: audiograbber 1.83.01
#
DISCID=39108315
DTITLE=Various Artist - Ray Hadley Country Music Collection Volume 2 Disc 1
DYEAR=2011
DGENRE=Country
TTITLE0=Glen Campbell - Try A Little Kindness
TTITLE1=Alan Jackson - Drive ( For Daddy Gene)
TTITLE2=Ronnie Dunn - She's Actin' Single
TTITLE3=Tim McGraw - Live Like You Were Dying
TTITLE4=Sugarland - Stay
TTITLE5=Conway Twitty - It's Only Make Believe
TTITLE6=Don Gibson - Sea Of Heartbreak
TTITLE7=Charlie Rich - The Most Beautifull Girl
TTITLE8=Greame Conners - Beach House In The Blue Mountains
TTITLE9=The McClymonts - Kick It Up
TTITLE10=Adam Harvey - Dig Two Graves
TTITLE11=Alabama - Take Me Down
TTITLE12=Beccy Cole - This Shirt
TTITLE13=Lee Kernaghan With Trisha Yearwood - Goondiwindi Moon
TTITLE14=Troy Cassar Daly - Trains
TTITLE15=George Jones - She Thinks I Still Care
TTITLE16=Tammy Wynette - I Don't Wanna Play House
TTITLE17=Dolly Parton - Why'd You Come In Here lookin' Like That
TTITLE18=Juice Newton - Angel Of The Morning
TTITLE19=Faron Young - Hello Walls
TTITLE20=Elvis Presley - There Goes My Everything
EXTD=
EXTT0=
EXTT1=
EXTT2=
EXTT3=
EXTT4=
EXTT5=
EXTT6=
EXTT7=
EXTT8=
EXTT9=
EXTT10=
EXTT11=
EXTT12=
EXTT13=
EXTT14=
EXTT15=
EXTT16=
EXTT17=
EXTT18=
EXTT19=
EXTT20=
PLAYORDER=
